<svg xmlns="http://www.w3.org/2000/svg" viewBox="0 0 512 512">
  <rect width="512" height="512" rx="96" fill="#0b8f88"/>
  <path fill="#f2c15d" d="M126 169c0-38 31-69 69-69h122c38 0 69 31 69 69v174c0 38-31 69-69 69H195c-38 0-69-31-69-69V169Z"/>
  <path fill="#fff" d="M183 184c0-17 14-31 31-31h84c17 0 31 14 31 31v144c0 17-14 31-31 31h-84c-17 0-31-14-31-31V184Z"/>
  <path fill="#bf5d6a" d="M219 256c0-20 16-36 36-36s36 16 36 36-16 36-36 36-36-16-36-36Z"/>
  <path fill="#0b8f88" d="M207 342h98c8 0 14 6 14 14s-6 14-14 14h-98c-8 0-14-6-14-14s6-14 14-14Z"/>
</svg>
